<svg width="30" height="22" viewBox="0 0 30 22" fill="none" xmlns="http://www.w3.org/2000/svg">
<path d="M11.9375 15.1875C14.3958 14.1875 16.75 13.6875 19 13.6875C21.25 13.6875 23.5833 14.1875 26 15.1875C28.4583 16.1458 29.6875 17.4167 29.6875 19V21.6875H8.3125V19C8.3125 17.4167 9.52083 16.1458 11.9375 15.1875ZM7 8.3125H11V11H7V15H4.3125V11H0.3125V8.3125H4.3125V4.3125H7V8.3125ZM22.75 9.4375C21.7083 10.4792 20.4583 11 19 11C17.5417 11 16.2917 10.4792 15.25 9.4375C14.2083 8.39583 13.6875 7.14583 13.6875 5.6875C13.6875 4.22917 14.2083 2.97917 15.25 1.9375C16.2917 0.854167 17.5417 0.3125 19 0.3125C20.4583 0.3125 21.7083 0.854167 22.75 1.9375C23.7917 2.97917 24.3125 4.22917 24.3125 5.6875C24.3125 7.14583 23.7917 8.39583 22.75 9.4375Z" fill="#8DBC4A"/>
</svg>